<svg height="512pt" viewBox="0 0 512 512" width="512pt" xmlns="http://www.w3.org/2000/svg"><path d="m437.019531 74.980469c-48.351562-48.351563-112.640625-74.980469-181.019531-74.980469s-132.667969 26.628906-181.019531 74.980469c-48.351563 48.351562-74.980469 112.640625-74.980469 181.019531s26.628906 132.667969 74.980469 181.019531c48.351562 48.351563 112.640625 74.980469 181.019531 74.980469s132.667969-26.628906 181.019531-74.980469c48.351563-48.351562 74.980469-112.640625 74.980469-181.019531s-26.628906-132.667969-74.980469-181.019531zm0 0" fill="#5a5a6b"/><path d="m437.019531 74.980469c-48.351562-48.351563-112.640625-74.980469-181.019531-74.980469v512c68.378906 0 132.667969-26.628906 181.019531-74.980469 48.351563-48.351562 74.980469-112.640625 74.980469-181.019531s-26.628906-132.667969-74.980469-181.019531zm0 0" fill="#464655"/><path d="m172.761719 231.8125c-5.578125 0-10.828125-3.125-13.414063-8.296875l-44.042968-88.085937c-2.886719-5.773438-1.753907-12.75 2.808593-17.316407 4.566407-4.5625 11.539063-5.695312 17.316407-2.808593l88.085937 44.042968c6.289063 3.144532 9.550781 10.234375 7.84375 17.054688l-8.808594 35.234375c-1.34375 5.375-5.539062 9.574219-10.914062 10.914062l-35.234375 8.808594c-1.210938.304687-2.433594.453125-3.640625.453125zm0 0" fill="#ffb229"/><path d="m383.273438 398.277344c-2.277344 0-4.570313-.515625-6.703126-1.582032l-88.085937-44.042968c-6.289063-3.144532-9.550781-10.234375-7.84375-17.054688l8.808594-35.234375c1.34375-5.375 5.539062-9.574219 10.914062-10.914062l35.234375-8.808594c6.820313-1.710937 13.910156 1.554687 17.054688 7.84375l44.042968 88.085937c2.886719 5.773438 1.753907 12.75-2.808593 17.316407-2.882813 2.878906-6.722657 4.390625-10.613281 4.390625zm0 0" fill="#ff9600"/><path d="m339.238281 231.8125c-1.207031 0-2.429687-.148438-3.640625-.453125l-35.234375-8.808594c-5.375-1.339843-9.570312-5.539062-10.914062-10.914062l-8.808594-35.234375c-1.707031-6.820313 1.554687-13.910156 7.84375-17.054688l88.085937-44.042968c5.773438-2.890626 12.75-1.757813 17.316407 2.808593 4.5625 4.566407 5.695312 11.542969 2.808593 17.316407l-44.042968 88.085937c-2.585938 5.171875-7.839844 8.296875-13.414063 8.296875zm0 0" fill="#ff9600"/><path d="m128.726562 398.277344c-3.894531 0-7.730468-1.511719-10.613281-4.390625-4.5625-4.566407-5.695312-11.542969-2.808593-17.316407l44.042968-88.085937c3.144532-6.289063 10.230469-9.554687 17.054688-7.84375l35.234375 8.808594c5.375 1.339843 9.570312 5.539062 10.914062 10.914062l8.808594 35.234375c1.707031 6.816406-1.554687 13.910156-7.84375 17.050782l-88.085937 44.046874c-2.132813 1.066407-4.425782 1.582032-6.703126 1.582032zm0 0" fill="#ffb229"/><path d="m500.621094 241.441406-184.242188-45.820312-60.378906 60.378906 60.378906 60.378906 184.242188-45.820312c6.6875-1.664063 11.378906-7.667969 11.378906-14.558594s-4.691406-12.894531-11.378906-14.558594zm0 0" fill="#fae114"/><path d="m195.621094 195.621094-184.242188 45.820312c-6.6875 1.664063-11.378906 7.667969-11.378906 14.558594s4.691406 12.894531 11.378906 14.558594l184.242188 45.820312 60.378906-60.378906zm0 0" fill="#fff55f"/><path d="m316.378906 195.621094-45.820312-184.242188c-1.664063-6.6875-7.667969-11.378906-14.558594-11.378906s-12.894531 4.691406-14.558594 11.378906l-45.820312 184.242188 60.378906 60.378906zm0 0" fill="#fae114"/><path d="m195.621094 316.378906 45.824218 184.242188c1.660157 6.6875 7.664063 11.378906 14.554688 11.378906s12.894531-4.691406 14.558594-11.378906l45.820312-184.242188-60.378906-60.378906zm0 0" fill="#fae114"/><g fill="#f0d205"><path d="m270.558594 11.378906c-1.664063-6.6875-7.667969-11.378906-14.558594-11.378906v256l60.378906-60.378906zm0 0"/><path d="m256 512c6.890625 0 12.894531-4.691406 14.558594-11.378906l45.820312-184.242188-60.378906-60.378906zm0 0"/></g></svg>