<?xml version="1.0" encoding="iso-8859-1"?>
<!-- Generator: Adobe Illustrator 19.0.0, SVG Export Plug-In . SVG Version: 6.00 Build 0)  -->
<svg version="1.1" id="Capa_1" xmlns="http://www.w3.org/2000/svg" xmlns:xlink="http://www.w3.org/1999/xlink" x="0px" y="0px"
	 viewBox="0 0 496 496" style="enable-background:new 0 0 496 496;" xml:space="preserve">
<g>
	<g>
		<g>
			<rect y="352" width="496" height="16"/>
			<rect x="24" y="384" width="168" height="16"/>
			<rect x="208" y="384" width="16" height="16"/>
			<rect x="280" y="416" width="168" height="16"/>
			<rect x="464" y="416" width="16" height="16"/>
			<rect x="152" y="480" width="128" height="16"/>
			<rect x="296" y="480" width="16" height="16"/>
			<rect x="72" y="432" width="16" height="16"/>
			<rect x="192" y="432" width="16" height="16"/>
			<rect x="448" y="384" width="16" height="16"/>
			<rect x="384" y="464" width="16" height="16"/>
			<path d="M31.848,281.784c9.088,5.408,21.52,12.808,22.912,18.016c1.512,5.664-5.44,18.152-11.024,28.176l-2.296,4.176
				l14.016,7.704l2.272-4.096c8.064-14.488,15.68-28.168,12.496-40.096c-3.072-11.504-16.24-19.336-30.184-27.632
				C29.888,262,16,253.736,16,248c0-5.736,13.888-14,24.032-20.024c13.944-8.296,27.12-16.136,30.184-27.632
				c3.192-11.928-4.448-25.624-12.536-40.12c-5.272-9.448-13.24-23.728-10.624-28.248c2.72-4.696,19.28-4.92,30.24-5.064
				c16.464-0.216,32-0.424,40.592-9.016s8.808-24.136,9.024-40.592c0.144-10.96,0.36-27.52,5.064-30.24
				c4.504-2.632,18.8,5.352,28.24,10.624c14.496,8.096,28.152,15.752,40.128,12.544c11.496-3.072,19.328-16.24,27.624-30.184
				C234,29.888,242.264,16,248,16c5.736,0,13.992,13.888,20.032,24.032c8.296,13.944,16.136,27.12,27.632,30.192
				c11.92,3.184,25.624-4.456,40.12-12.544c9.456-5.272,23.76-13.248,28.248-10.624c4.704,2.72,4.92,19.288,5.064,30.248
				c0.216,16.456,0.424,32,9.016,40.592s24.144,8.8,40.592,9.016c10.96,0.144,27.52,0.36,30.24,5.064
				c2.616,4.52-5.352,18.8-10.624,28.248c-8.096,14.496-15.736,28.192-12.536,40.12c3.072,11.496,16.24,19.336,30.184,27.632
				C466.112,234,480,242.264,480,248c0,5.728-13.888,13.992-24.032,20.032c-13.944,8.296-27.12,16.136-30.184,27.624
				c-3.192,11.936,4.432,25.632,12.496,40.136l2.256,4.064l14.016-7.704l-2.288-4.144c-5.592-10.048-12.544-22.536-11.032-28.216
				c1.392-5.2,13.832-12.608,22.912-18.008C479.808,272.464,496,262.832,496,248c0-14.832-16.192-24.464-31.848-33.784
				c-9.088-5.4-21.52-12.808-22.912-18.008c-1.512-5.664,5.456-18.152,11.056-28.192c8.688-15.568,17.672-31.664,10.496-44.056
				c-7.272-12.56-25.872-12.808-43.872-13.048c-11.36-0.152-25.496-0.336-29.496-4.328c-3.992-3.992-4.176-18.128-4.328-29.488
				c-0.232-18-0.48-36.616-13.048-43.888c-12.4-7.168-28.496,1.816-44.064,10.504c-10.04,5.6-22.536,12.568-28.184,11.056
				c-5.208-1.392-12.608-13.832-18.016-22.92C272.464,16.192,262.832,0,248,0c-14.832,0-24.472,16.192-33.792,31.856
				c-5.4,9.08-12.8,21.52-18,22.912c-5.688,1.56-18.16-5.456-28.192-11.056c-15.56-8.688-31.648-17.68-44.056-10.504
				c-12.56,7.272-12.816,25.88-13.048,43.88c-0.16,11.36-0.336,25.496-4.336,29.496c-3.992,4-18.136,4.176-29.496,4.328
				c-17.992,0.24-36.6,0.488-43.872,13.048c-7.168,12.392,1.816,28.496,10.496,44.064c5.6,10.032,12.568,22.528,11.056,28.192
				c-1.392,5.208-13.832,12.608-22.912,18.016C16.184,223.536,0,233.168,0,248C0,262.832,16.192,272.472,31.848,281.784z"/>
			<path d="M388.224,340.416C406.4,312.928,416,280.976,416,248c0-92.64-75.368-168-168-168S80,155.36,80,248
				c0,32.976,9.6,64.928,27.776,92.416l13.344-8.832C104.688,306.736,96,277.832,96,248c0-83.816,68.184-152,152-152
				s152,68.184,152,152c0,29.832-8.688,58.736-25.12,83.584L388.224,340.416z"/>
		</g>
	</g>
</g>
<g>
</g>
<g>
</g>
<g>
</g>
<g>
</g>
<g>
</g>
<g>
</g>
<g>
</g>
<g>
</g>
<g>
</g>
<g>
</g>
<g>
</g>
<g>
</g>
<g>
</g>
<g>
</g>
<g>
</g>
</svg>
