<svg id="Layer_1" enable-background="new 0 0 512 512" height="512" viewBox="0 0 512 512" width="512" xmlns="http://www.w3.org/2000/svg" xmlns:xlink="http://www.w3.org/1999/xlink"><linearGradient id="SVGID_1_" gradientUnits="userSpaceOnUse" x1="60.5" x2="451.5" y1="256" y2="256"><stop offset="0" stop-color="#80d8ff"/><stop offset="1" stop-color="#ea80fc"/></linearGradient><path d="m256.115 0c-107.862 0-195.615 87.477-195.615 195 0 44.307 9.831 88.484 29.221 131.306 15.339 33.875 36.657 66.947 63.362 98.297 45.239 53.106 90.164 82.875 92.055 84.116 3.332 2.188 7.155 3.282 10.978 3.282 3.826 0 7.653-1.096 10.987-3.289 1.888-1.241 46.757-31.011 91.938-84.119 26.67-31.35 47.96-64.421 63.278-98.296 19.364-42.819 29.181-86.994 29.181-131.297 0-107.523-87.649-195-195.385-195zm0 40c85.68 0 155.385 69.533 155.385 155 0 9.891-.57 19.742-1.668 29.552l-42.332-25.889v-45.663c0-11.046-8.954-20-20-20s-20 8.954-20 20v21.201l-62.565-38.263c-6.386-3.905-14.42-3.917-20.819-.031l-142.197 86.392c-.938-9.065-1.418-18.166-1.418-27.299-.001-85.467 69.808-155 155.614-155zm73.192 357.81c-28.763 33.984-57.889 57.944-73.199 69.543-15.335-11.602-44.503-35.564-73.308-69.552-36.421-42.975-60.85-87.64-73.095-133.429l144.761-87.95 147.284 90.073c-12.411 45.051-36.63 89.002-72.443 131.315zm-88.807-129.81v20c0 5.523-4.477 10-10 10h-20c-5.523 0-10-4.477-10-10v-20c0-5.523 4.477-10 10-10h20c5.523 0 10 4.477 10 10zm69 0v20c0 5.523-4.477 10-10 10h-20c-5.523 0-10-4.477-10-10v-20c0-5.523 4.477-10 10-10h20c5.523 0 10 4.477 10 10zm0 70v20c0 5.523-4.477 10-10 10h-20c-5.523 0-10-4.477-10-10v-20c0-5.523 4.477-10 10-10h20c5.523 0 10 4.477 10 10zm-69 0v20c0 5.523-4.477 10-10 10h-20c-5.523 0-10-4.477-10-10v-20c0-5.523 4.477-10 10-10h20c5.523 0 10 4.477 10 10z" fill="url(#SVGID_1_)"/></svg>