<svg id="angle" enable-background="new 0 0 300 300" height="512" viewBox="0 0 300 300" width="512" xmlns="http://www.w3.org/2000/svg" xmlns:xlink="http://www.w3.org/1999/xlink"><linearGradient id="SVGID_1_" gradientUnits="userSpaceOnUse" x1="33.82" x2="224.829" y1="248.18" y2="57.171"><stop offset="0" stop-color="#107eff"/><stop offset="1" stop-color="#8f16ff"/></linearGradient><g><path d="m187.516 76.828 2.828-2.828-2.828-2.828c-1.562-1.562-1.562-4.094 0-5.656s4.094-1.562 5.656 0l2.828 2.828 2.828-2.828c1.562-1.562 4.094-1.562 5.656 0s1.562 4.094 0 5.656l-2.828 2.828 2.828 2.828c1.562 1.562 1.562 4.094 0 5.656-.781.781-1.805 1.172-2.828 1.172s-2.047-.391-2.828-1.172l-2.828-2.828-2.828 2.828c-.781.781-1.805 1.172-2.828 1.172s-2.047-.391-2.828-1.172c-1.563-1.562-1.563-4.093 0-5.656zm-51.516 1.172c2.209 0 4-1.791 4-4s-1.791-4-4-4-4 1.791-4 4 1.791 4 4 4zm84 144c0 6.617-5.383 12-12 12s-12-5.383-12-12 5.383-12 12-12 12 5.383 12 12zm-8 0c0-2.205-1.793-4-4-4s-4 1.795-4 4 1.793 4 4 4 4-1.795 4-4zm-148-164c0-6.617 5.383-12 12-12s12 5.383 12 12-5.383 12-12 12-12-5.383-12-12zm8 0c0 2.205 1.793 4 4 4s4-1.795 4-4-1.793-4-4-4-4 1.795-4 4zm196 44v40c0 2.209-1.789 4-4 4h-176v94.971c0 7.183-5.844 13.029-13.027 13.029h-29.946c-7.183 0-13.027-5.846-13.027-13.029v-109.942c0-5.402 3.307-10.044 8-12.016v-17.013c0-2.209 1.789-4 4-4h220c2.211 0 4 1.791 4 4zm-188 29.029c0-2.773-2.254-5.029-5.027-5.029h-29.946c-2.773 0-5.027 2.256-5.027 5.029v109.941c0 2.773 2.254 5.029 5.027 5.029h29.945c2.773 0 5.027-2.256 5.027-5.029v-109.941zm180-25.029h-212v12h26.973c7.183 0 13.027 5.846 13.027 13.029v6.971h172zm-188 124c0 6.617-5.383 12-12 12s-12-5.383-12-12 5.383-12 12-12 12 5.383 12 12zm-4-96c-2.209 0-4 1.791-4 4s1.791 4 4 4 4-1.791 4-4-1.791-4-4-4zm-16 8c2.209 0 4-1.791 4-4s-1.791-4-4-4-4 1.791-4 4 1.791 4 4 4zm80 28v32c0 2.209-1.789 4-4 4h-20c-2.211 0-4-1.791-4-4s1.789-4 4-4h16v-8h-16c-2.211 0-4-1.791-4-4v-16c0-2.209 1.789-4 4-4h20c2.211 0 4 1.791 4 4zm-20 12h12v-8h-12zm56-12v32c0 2.209-1.789 4-4 4h-20c-2.211 0-4-1.791-4-4v-32c0-2.209 1.789-4 4-4h20c2.211 0 4 1.791 4 4zm-8 4h-12v24h12zm20-16h-4c-2.209 0-4 1.791-4 4v4c0 2.209 1.791 4 4 4h4c2.209 0 4-1.791 4-4v-4c0-2.209-1.791-4-4-4zm16-40h40c2.211 0 4-1.791 4-4s-1.789-4-4-4h-40c-2.211 0-4 1.791-4 4s1.789 4 4 4z" fill="url(#SVGID_1_)"/></g></svg>