<?xml version="1.0" encoding="iso-8859-1"?>
<!-- Generator: Adobe Illustrator 19.0.0, SVG Export Plug-In . SVG Version: 6.00 Build 0)  -->
<svg version="1.1" id="Layer_1" xmlns="http://www.w3.org/2000/svg" xmlns:xlink="http://www.w3.org/1999/xlink" x="0px" y="0px"
	 viewBox="0 0 512 512" style="enable-background:new 0 0 512 512;" xml:space="preserve">
<path style="fill:#EDECEB;" d="M49.938,125.634c2.881,0,5.693,0.291,8.411,0.843v-3.524c-2.692-5.545-4.205-11.769-4.205-18.346
	c0-23.225,18.828-42.053,42.053-42.053c8.401,0,16.22,2.473,22.787,6.717c6.394-25.599,29.536-44.565,57.115-44.565
	c31.405,0,57.061,24.592,58.777,55.568c42.842,6.082,75.794,42.891,75.794,87.413H7.885
	C7.885,144.463,26.713,125.634,49.938,125.634z"/>
<path style="fill:#DBD9D7;" d="M66.76,142.456c2.881,0,5.693,0.291,8.411,0.843v-3.524c-2.692-5.545-4.205-11.769-4.205-18.346
	c0-23.225,18.828-42.053,42.053-42.053c8.401,0,16.22,2.473,22.787,6.717c6.394-25.599,29.536-44.565,57.115-44.565
	c11.959,0,23.079,3.573,32.366,9.701c-10.527-15.976-28.624-26.522-49.188-26.522c-27.579,0-50.721,18.966-57.115,44.565
	c-6.567-4.244-14.385-6.717-22.787-6.717c-23.225,0-42.053,18.828-42.053,42.053c0,6.578,1.513,12.801,4.205,18.346v3.524
	c-2.718-0.552-5.53-0.843-8.411-0.843c-23.225,0-42.053,18.828-42.053,42.053h20.331C34.706,152.838,49.517,142.456,66.76,142.456z"
	/>
<polygon style="fill:#FFC412;" points="375.399,304.815 407.392,272.821 375.399,240.828 387.11,197.125 343.406,185.415 
	331.696,141.712 287.993,153.422 256,121.429 224.007,153.422 180.304,141.712 168.593,185.415 124.89,197.125 136.601,240.828 
	104.608,272.821 136.601,304.815 124.89,348.517 168.593,360.227 180.304,403.931 224.007,392.22 256,424.214 287.993,392.22 
	331.696,403.931 343.406,360.227 387.11,348.517 "/>
<circle style="fill:#F5760F;" cx="256" cy="272.821" r="100.928"/>
<circle style="fill:#FFD042;" cx="256" cy="272.821" r="84.107"/>
<path style="fill:#B7B3AE;" d="M230.768,289.643h-16.821c-18.58,0-33.643-15.062-33.643-33.643v-16.821h67.285v33.643
	C247.589,282.112,240.058,289.643,230.768,289.643z"/>
<g>
	<path style="fill:#807A72;" d="M180.304,239.179V256c0,7.007,2.145,13.51,5.812,18.895l35.716-35.716H180.304z"/>
	<path style="fill:#807A72;" d="M238.127,239.179l-44,44c5.559,4.061,12.408,6.464,19.82,6.464h16.821
		c9.291,0,16.821-7.531,16.821-16.821v-33.643H238.127z"/>
</g>
<path style="fill:#B7B3AE;" d="M281.232,289.643h16.821c18.58,0,33.643-15.062,33.643-33.643v-16.821h-67.285v33.643
	C264.411,282.112,271.941,289.643,281.232,289.643z"/>
<g>
	<path style="fill:#807A72;" d="M264.411,239.179v33.643c0,5.315,2.472,10.047,6.321,13.129l46.772-46.772H264.411z"/>
	<path style="fill:#807A72;" d="M298.053,289.643c18.58,0,33.643-15.062,33.643-33.643v-11.565l-45.207,45.207H298.053z"/>
</g>
<path style="fill:#EDECEB;" d="M462.062,445.24c-2.881,0-5.693,0.291-8.411,0.843v-3.524c2.692-5.545,4.205-11.769,4.205-18.346
	c0-23.225-18.828-42.053-42.053-42.053c-8.401,0-16.22,2.473-22.787,6.717c-6.394-25.599-29.536-44.565-57.115-44.565
	c-31.405,0-57.061,24.592-58.777,55.568c-42.842,6.082-75.794,42.891-75.794,87.413h302.784
	C504.115,464.069,485.287,445.24,462.062,445.24z"/>
<path style="fill:#DBD9D7;" d="M293.946,408.291c1.716-30.977,27.371-55.568,58.777-55.568c6.11,0,12.001,0.935,17.542,2.662
	c-9.669-6.966-21.534-11.073-34.363-11.073c-31.405,0-57.061,24.592-58.777,55.568c-42.842,6.082-75.794,42.891-75.794,87.413h17.22
	C222.395,446.616,253.834,413.986,293.946,408.291z"/>
<path d="M247.589,231.294h-67.285c-4.355,0-7.885,3.53-7.885,7.885V256c0,22.898,18.63,41.528,41.528,41.528h16.821
	c13.623,0,24.706-11.083,24.706-24.706v-33.643C255.474,234.824,251.944,231.294,247.589,231.294z M239.704,272.821
	c0,4.928-4.009,8.936-8.936,8.936h-16.821c-14.202,0-25.758-11.555-25.758-25.758v-8.936h51.515V272.821z"/>
<path d="M256.526,239.179v33.643c0,13.623,11.083,24.706,24.706,24.706h16.821c22.898,0,41.528-18.63,41.528-41.528v-16.821
	c0-4.355-3.53-7.885-7.885-7.885h-67.285C260.056,231.294,256.526,234.824,256.526,239.179z M272.296,247.064h51.515V256
	c0,14.202-11.555,25.758-25.758,25.758h-16.821c-4.928,0-8.936-4.009-8.936-8.936V247.064z"/>
<path d="M463.988,437.392c1.166-4.26,1.754-8.667,1.754-13.178c0-27.536-22.403-49.938-49.938-49.938
	c-6.266,0-12.419,1.169-18.18,3.424c-3.139-7.636-7.619-14.491-13.114-20.322l4.641-1.244c4.144-1.111,6.688-5.507,5.576-9.658
	l-10.532-39.306l28.774-28.774c3.079-3.079,3.079-8.072,0-11.15l-28.774-28.774l10.532-39.306c1.127-4.206-1.369-8.529-5.575-9.658
	l-39.306-10.532l-10.531-39.305c-1.127-4.206-5.453-6.7-9.658-5.576l-15.682,4.202c-5.116-15.987-14.316-30.318-26.878-41.751
	c-12.787-11.636-28.236-19.519-44.993-23.008c-4.86-32.272-32.721-56.715-66.004-56.715c-27.401,0-51.561,16.557-61.722,41.272
	c-5.76-2.255-11.914-3.424-18.18-3.424c-27.536,0-49.938,22.403-49.938,49.938c0,4.511,0.588,8.917,1.754,13.178
	C21.366,118.802,0,140.797,0,167.688c0,4.355,3.53,7.885,7.885,7.885h155.182l-0.913,3.404l-39.306,10.532
	c-4.206,1.127-6.702,5.451-5.576,9.658l10.532,39.306L99.03,267.247c-3.079,3.079-3.079,8.072,0,11.15l28.774,28.774l-10.532,39.306
	c-1.127,4.206,1.369,8.531,5.576,9.658l39.306,10.532l10.532,39.306c1.127,4.206,5.452,6.7,9.658,5.575l39.306-10.532l9.74,9.74
	c-5.117,3.896-9.867,8.318-14.161,13.224c-15.337,17.517-23.783,40.003-23.783,63.313c0,4.355,3.53,7.885,7.885,7.885h302.784
	c4.355,0,7.885-3.53,7.885-7.885C512,460.403,490.634,438.408,463.988,437.392z M16.689,159.803
	c3.568-15.052,17.122-26.283,33.25-26.283c1.622,0,3.245,0.115,4.851,0.343c1.441,0.205,2.847,0.606,4.315,0.464
	c2.625-0.253,5.004-1.851,6.229-4.187c0.874-1.666,0.901-3.399,0.901-5.219c0-1.868,0.052-3.672-0.792-5.409
	c-2.266-4.665-3.414-9.679-3.414-14.903c0-18.84,15.328-34.168,34.168-34.168c6.586,0,12.985,1.886,18.508,5.454
	c4.471,2.887,10.643,0.439,11.929-4.712c5.675-22.721,26.015-38.59,49.464-38.59c27.05,0,49.41,21.136,50.905,48.12
	c0.208,3.756,3.04,6.842,6.764,7.371c30.069,4.269,55.441,25.748,64.946,54.305l-8.364,2.241l-28.774-28.774
	c-3.079-3.079-8.072-3.079-11.15,0l-28.774,28.774l-39.306-10.532c-4.201-1.128-8.529,1.369-9.658,5.575l-5.393,20.132H16.689z
	 M229.583,386.645c-1.991-1.992-4.896-2.77-7.616-2.041l-36.087,9.669l-9.669-36.087c-0.73-2.721-2.854-4.846-5.575-5.575
	l-36.087-9.669l9.67-36.087c0.729-2.721-0.048-5.625-2.041-7.617l-26.42-26.417l26.417-26.417c1.992-1.992,2.77-4.895,2.041-7.617
	l-9.67-36.087l36.087-9.669c2.721-0.73,4.846-2.854,5.575-5.575l9.669-36.087l36.087,9.669c2.722,0.73,5.625-0.049,7.616-2.041
	l26.417-26.417l26.417,26.417c1.992,1.992,4.896,2.77,7.616,2.041l36.087-9.669l9.669,36.086c0.73,2.721,2.854,4.847,5.575,5.576
	l36.087,9.669l-9.669,36.087c-0.729,2.721,0.048,5.625,2.041,7.616l26.417,26.417l-26.417,26.417
	c-1.992,1.992-2.77,4.895-2.041,7.616l9.669,36.087l-8.414,2.254c-7.596-4.336-16.096-7.2-25.084-8.28
	c13.541-18.501,20.858-40.739,20.858-64.094c0-33.954-15.425-65.351-42.32-86.14c-3.445-2.662-8.397-2.029-11.061,1.416
	c-2.663,3.445-2.029,8.398,1.416,11.061c23.007,17.781,36.2,44.63,36.2,73.664c0,24.457-9.395,47.475-26.448,64.951
	c-15.691,3.18-29.43,11.866-39.051,24.011c-0.292,0.053-0.585,0.118-0.877,0.205c-8.614,2.572-17.586,3.875-26.667,3.875
	c-51.304,0-93.043-41.739-93.043-93.043s41.739-93.043,93.043-93.043c10.645,0,21.08,1.78,31.014,5.292
	c4.107,1.45,8.61-0.701,10.062-4.807c1.451-4.107-0.701-8.61-4.807-10.062c-11.628-4.11-23.831-6.193-36.271-6.193
	c-59.999,0-108.812,48.813-108.812,108.813S196,381.635,256,381.635c5.786,0,11.533-0.47,17.2-1.37
	c-1.504,4.118-2.63,8.422-3.302,12.883c-8.701,1.82-17.064,4.847-24.874,8.941L229.583,386.645z M209.606,479.409
	c3.612-36.352,31.906-66.507,68.627-71.721c3.724-0.528,6.556-3.614,6.764-7.371c1.495-26.984,23.855-48.12,50.905-48.12
	c23.449,0,43.789,15.869,49.464,38.591c1.287,5.15,7.459,7.6,11.929,4.712c5.522-3.569,11.922-5.454,18.508-5.454
	c18.84,0,34.168,15.328,34.168,34.168c0,5.224-1.148,10.238-3.414,14.902c-1.049,2.163-0.792,4.635-0.792,6.968
	c0,2.367,1.063,4.608,2.894,6.105c1.638,1.338,3.793,1.97,5.895,1.727c2.525-0.291,4.943-0.791,7.505-0.791
	c16.127,0,29.681,11.231,33.25,26.283H209.606V479.409z"/>
<g>
</g>
<g>
</g>
<g>
</g>
<g>
</g>
<g>
</g>
<g>
</g>
<g>
</g>
<g>
</g>
<g>
</g>
<g>
</g>
<g>
</g>
<g>
</g>
<g>
</g>
<g>
</g>
<g>
</g>
</svg>
