<svg height="512" viewBox="0 0 128 128" width="512" xmlns="http://www.w3.org/2000/svg"><g><g><g fill="#fed330"><path d="m64 27.353a1.75 1.75 0 0 1 -1.75-1.75v-7.603a1.75 1.75 0 0 1 3.5 0v7.6a1.75 1.75 0 0 1 -1.75 1.753z"/><path d="m76.746 32.632a1.75 1.75 0 0 1 -1.237-2.987l5.373-5.373a1.75 1.75 0 0 1 2.474 2.475l-5.373 5.373a1.74 1.74 0 0 1 -1.237.512z"/><path d="m89.625 45.379h-7.6a1.75 1.75 0 0 1 0-3.5h7.6a1.75 1.75 0 0 1 0 3.5z"/><path d="m82.119 63.5a1.743 1.743 0 0 1 -1.237-.513l-5.373-5.373a1.75 1.75 0 0 1 2.474-2.475l5.373 5.373a1.751 1.751 0 0 1 -1.237 2.988z"/><path d="m64 71a1.751 1.751 0 0 1 -1.75-1.75v-7.6a1.75 1.75 0 1 1 3.5 0v7.6a1.751 1.751 0 0 1 -1.75 1.75z"/><path d="m45.88 63.5a1.751 1.751 0 0 1 -1.237-2.988l5.374-5.373a1.75 1.75 0 1 1 2.474 2.475l-5.373 5.373a1.745 1.745 0 0 1 -1.238.513z"/><path d="m45.974 45.379h-7.6a1.75 1.75 0 0 1 0-3.5h7.6a1.75 1.75 0 0 1 0 3.5z"/><path d="m51.254 32.632a1.74 1.74 0 0 1 -1.237-.512l-5.374-5.373a1.75 1.75 0 1 1 2.475-2.475l5.373 5.373a1.75 1.75 0 0 1 -1.237 2.987z"/></g><path d="m18 93.259h92v6.219h-92z" fill="#ca7af3"/><path d="m18 99.477h92v10.608h-92z" fill="#a151d8"/><circle cx="64" cy="43.629" fill="#fdbb00" r="18.026"/></g><g fill="#003239"><path d="m92.844 57.057h4.881l-27.834 27.834a1.749 1.749 0 1 0 2.474 2.474l27.835-27.833v4.879a1.75 1.75 0 0 0 3.5 0v-9.1a1.749 1.749 0 0 0 -1.75-1.75h-9.1a1.75 1.75 0 0 0 0 3.5z"/><path d="m92 101.224a1.75 1.75 0 0 0 0-3.5h-1.25a1.75 1.75 0 0 0 0 3.5z"/><path d="m110 91.505h-45.275l-37.436-37.436a1.75 1.75 0 0 0 -2.475 2.475l34.961 34.961h-41.775a1.75 1.75 0 0 0 -1.75 1.75v6.22a1.751 1.751 0 0 0 1.75 1.75h66.12a1.75 1.75 0 0 0 0-3.5h-64.37v-2.72h88.5v2.719h-9a1.75 1.75 0 0 0 0 3.5h10.75a1.75 1.75 0 0 0 1.75-1.75v-6.22a1.749 1.749 0 0 0 -1.75-1.749z"/><path d="m110 108.332h-92a1.75 1.75 0 0 0 0 3.5h92a1.75 1.75 0 0 0 0-3.5z"/><path d="m38.375 45.375h5.938a19.682 19.682 0 0 0 4.532 10.931l-4.2 4.2a1.75 1.75 0 1 0 2.475 2.474l4.2-4.2a19.689 19.689 0 0 0 10.93 4.532v5.938a1.75 1.75 0 0 0 3.5 0v-5.938a19.689 19.689 0 0 0 10.931-4.532l4.2 4.2a1.749 1.749 0 1 0 2.474-2.474l-4.2-4.2a19.689 19.689 0 0 0 4.532-10.931h5.938a1.75 1.75 0 0 0 0-3.5h-5.938a19.689 19.689 0 0 0 -4.532-10.931l4.2-4.2a1.749 1.749 0 0 0 -2.474-2.474l-4.2 4.2a19.689 19.689 0 0 0 -10.931-4.532v-5.938a1.75 1.75 0 0 0 -3.5 0v5.938a19.689 19.689 0 0 0 -10.931 4.532l-4.2-4.2a1.75 1.75 0 1 0 -2.475 2.474l4.2 4.2a19.682 19.682 0 0 0 -4.532 10.931h-5.937a1.75 1.75 0 0 0 0 3.5zm25.625-18.025a16.275 16.275 0 1 1 -16.276 16.275 16.292 16.292 0 0 1 16.276-16.275z"/><path d="m62.911 35.054a1.628 1.628 0 0 0 .183-.01 9.038 9.038 0 0 1 .906-.044 1.75 1.75 0 0 0 0-3.5 12.358 12.358 0 0 0 -1.268.066 1.75 1.75 0 0 0 .179 3.491z"/><path d="m55.373 43.625a8.552 8.552 0 0 1 2.686-6.256 1.75 1.75 0 0 0 -2.412-2.537 12.022 12.022 0 0 0 -3.774 8.793 1.75 1.75 0 0 0 3.5 0z"/></g></g></svg>